<svg version="1.1" xmlns="http://www.w3.org/2000/svg" width="32" height="32" viewBox="0 0 16 16">
<title>VK</title>
	<g><path d="M7.829 12.525h.956s.289-.03.438-.188c.137-.146.131-.421.131-.421s-.021-1.285.578-1.475c.586-.188 1.34 1.24 2.139 1.789.604.416 1.063.324 1.063.324l2.139-.029s1.117-.067.588-.947c-.043-.069-.311-.647-1.59-1.838-1.34-1.242-1.16-1.041.455-3.193.979-1.309 1.375-2.109 1.252-2.451-.117-.326-.84-.24-.84-.24l-2.408.015s-.18-.024-.313.055c-.129.076-.212.258-.212.258s-.382 1.014-.89 1.876c-1.07 1.817-1.5 1.915-1.676 1.802-.406-.264-.301-1.058-.301-1.624 0-1.763.269-2.498-.521-2.688-.26-.063-.456-.105-1.125-.112-.857-.007-1.584.003-1.995.206-.274.134-.485.433-.356.45.158.02.52.096.711.356.246.336.238 1.09.238 1.09s.142 2.074-.332 2.332c-.324.177-.77-.184-1.725-1.834-.488-.846-.859-1.78-.859-1.78s-.069-.175-.197-.27c-.154-.113-.37-.148-.37-.148l-2.286.014s-.344.011-.469.159c-.112.133-.01.406-.01.406s1.791 4.188 3.815 6.3c1.861 1.933 3.972 1.806 3.972 1.806z"></path></g>
</svg>